<svg width="60" height="60" viewBox="0 0 60 60" fill="none" xmlns="http://www.w3.org/2000/svg">
<g clip-path="url(#clip0)">
<path d="M29.9989 26.2499C20.6931 26.2499 7.49895 40.6358 7.49895 49.7167C7.49895 53.8065 10.6407 56.2499 15.906 56.2499C21.6294 56.2499 25.4087 53.3108 29.9989 53.3108C34.629 53.3108 38.4189 56.2499 44.0919 56.2499C49.3571 56.2499 52.4989 53.8065 52.4989 49.7167C52.4989 40.6358 39.3048 26.2499 29.9989 26.2499ZM12.7396 24.7721C11.5208 20.7116 7.76613 18.0819 4.35363 18.8975C0.941134 19.7131 -0.836601 23.6659 0.382149 27.7264C1.6009 31.787 5.35559 34.4167 8.76809 33.601C12.1806 32.7854 13.9583 28.8327 12.7396 24.7721ZM22.6677 22.337C26.2935 21.3831 28.1075 16.4846 26.72 11.3963C25.3325 6.30805 21.2685 2.95766 17.6427 3.91157C14.0169 4.86547 12.2029 9.76391 13.5904 14.8522C14.9779 19.9405 19.0431 23.292 22.6677 22.337ZM55.6431 18.8987C52.2306 18.0831 48.4771 20.7127 47.2571 24.7733C46.0384 28.8338 47.8161 32.7866 51.2286 33.6022C54.6411 34.4178 58.3946 31.7881 59.6146 27.7276C60.8333 23.667 59.0556 19.7143 55.6431 18.8987ZM37.3302 22.337C40.956 23.2909 45.02 19.9405 46.4075 14.8522C47.795 9.76391 45.981 4.86665 42.3552 3.91157C38.7294 2.95649 34.6653 6.30805 33.2779 11.3963C31.8904 16.4846 33.7044 21.3831 37.3302 22.337Z" fill="black"/>
</g>
<defs>
<clipPath id="clip0">
<rect width="60" height="60" fill="white"/>
</clipPath>
</defs>
</svg>
